# AST/ASF file generated using VICON BodyLanguage
# -----------------------------------------------
:version 1.10
:name VICON
:units
  mass 1.0
  length 0.45
  angle deg
:documentation
   .ast/.asf automatically generated from VICON data using
   VICON BodyBuilder and BodyLanguage model FoxedUp or BRILLIANT.MOD
:root
   order TX TY TZ RX RY RZ
   axis XYZ
   position 0 0 0  
   orientation 0 0 0 
:bonedata
  begin
     id 1 
     name lhipjoint
     direction 0.589753 -0.68606 0.426044 
     length 2.54082 
     axis 0 0 0  XYZ
  end
  begin
     id 2 
     name lfemur
     direction 0.34202 -0.939693 0  
     length 7.04539  
     axis 0 0 20  XYZ
    dof rx ry rz
    limits (-160.0 20.0)
           (-70.0 70.0)
           (-60.0 70.0)
  end
  begin
     id 3 
     name ltibia
     direction 0.34202 -0.939693 0   
     length 7.83772   
     axis 0 0 20   XYZ
    dof rx
    limits (-10.0 170.0)
  end
  begin
     id 4 
     name lfoot
     direction 0.0596604 -0.163915 0.984669   
     length 2.39542   
     axis -90 7.62852e-016 20   XYZ
    dof rx rz
    limits (-45.0 90.0)
           (-70.0 20.0)
  end
  begin
     id 5 
     name ltoes
     direction 1.53514e-011 -4.21954e-011 1   
     length 1.2047   
     axis -90 7.62852e-016 20   XYZ
    dof rx
    limits (-90.0 20.0)
  end
  begin
     id 6 
     name rhipjoint
     direction -0.580585 -0.69168 0.429534   
     length 2.52018  
     axis 0 0 0  XYZ 
  end
  begin
     id 7 
     name rfemur
     direction -0.34202 -0.939693 0   
     length 7.0101   
     axis 0 0 -20   XYZ
    dof rx ry rz
    limits (-160.0 20.0)
           (-70.0 70.0)
           (-70.0 60.0)
  end
  begin
     id 8 
     name rtibia
     direction -0.34202 -0.939693 0   
     length 7.70628   
     axis 0 0 -20   XYZ
    dof rx
    limits (-10.0 170.0)
 end
 begin
     id 9 
     name rfoot
     direction -0.0696237 -0.19129 0.979061   
     length 2.52466  
     axis -90 -7.62852e-016 -20   XYZ
    dof rx rz
    limits (-45.0 90.0)
           (-20.0 70.0)
  end
  begin
     id 10 
     name rtoes
     direction -1.53519e-011 -4.21793e-011 1   
     length 1.266   
     axis -90 -7.62852e-016 -20   XYZ
    dof rx
    limits (-90.0 20.0)
  end
  begin
     id 11 
     name lowerback
     direction 0.00381965 0.995707 -0.0924856   
     length 2.20825   
     axis 0 0 0   XYZ
    dof rx ry rz
    limits (-20.0 45.0)
           (-30.0 30.0)
           (-30.0 30.0)
  end
  begin
     id 12 
     name upperback
     direction -0.0139043 0.999634 -0.0231929   
     length 2.21517   
     axis 0 0 0   XYZ
    dof rx ry rz
    limits (-20.0 45.0)
           (-30.0 30.0)
           (-30.0 30.0)
  end
  begin
     id 13 
     name thorax
     direction -0.0143933 0.999691 0.0202892   
     length 2.22911   
     axis 0 0 0   XYZ
    dof rx ry rz
    limits (-20.0 45.0)
           (-30.0 30.0)
           (-30.0 30.0)
  end
  begin
     id 14 
     name lowerneck
     direction -0.0251153 0.981819 0.188153   
     length 1.61782   
     axis 0 0 0   XYZ
    dof rx ry rz
    limits (-20.0 45.0)
           (-30.0 30.0)
           (-30.0 30.0)
  end
  begin
     id 15 
     name upperneck
     direction 0.0563891 0.969357 -0.239095   
     length 1.64526   
     axis 0 0 0   XYZ
    dof rx ry rz
    limits (-20.0 45.0)
           (-30.0 30.0)
           (-30.0 30.0)
  end
  begin
     id 16
     name head
     direction 0.0208328 0.99459 -0.101773  
     length 1.67436  
     axis 0 0 0   XYZ
    dof rx ry rz
    limits (-20.0 45.0)
           (-30.0 30.0)
           (-30.0 30.0)
  end
  begin
     id 17 
     name lclavicle
     direction 0.917689 0.397224 0.00772059  
     length 3.31102  
     axis 0 0 0   XYZ
    dof ry rz
    limits (-20.0 10.0)
           (0.0 20.0)
  end
  begin
     id 18 
     name lhumerus
     direction 1 -4.4896e-011 2.32308e-027   
     length 5.25537   
     axis 180 -30 -90   XYZ
    dof rx ry rz
    limits (-60.0 90.0)
           (-90.0 90.0)
           (-90.0 90.0)
  end
  begin
     id 19
     name lradius
     direction 1 -4.49005e-011 -2.04271e-027   
     length 3.38855   
     axis 180 -30 -90   XYZ
    dof rx
    limits (-10.0 170.0)
  end
  begin
     id 20
     name lwrist
     direction 1 -4.48892e-011 2.56952e-028   
     length 1.69428   
     axis -5.12785e-016 90 90   XYZ
    dof ry
    limits (-180.0 0.0)
 end
  begin
     id 21 
     name lhand
     direction 1 -4.48966e-011 5.13905e-028   
     length 0.614516   
     axis -3.27915e-016 90 90   XYZ
    dof rx rz
    limits (-90.0 90.0)
           (-45.0 45.0)
  end
  begin
     id 22 
     name lfingers
     direction 1 -4.48979e-011 1.02781e-027   
     length 0.495439   
     axis -6.5583e-016 90 90   XYZ
    dof rx
    limits (0.0 90.0)
  end
  begin
     id 23
     name lthumb
     direction 0.707107 -6.35001e-011 0.707107   
     length 0.711354   
     axis -90 45 2.85299e-015   XYZ
    dof rx rz
    limits (-45.0 45.0)
           (-45.0 45.0)
  end
  begin
     id 24 
     name rclavicle
     direction -0.938556 0.342765 -0.0403177   
     length 3.27019  
     axis 0 0 0   XYZ 
    dof ry rz
    limits (-10.0 20.0)
           (-20.0 0.0)
  end
  begin
     id 25 
     name rhumerus
     direction -1 -4.48966e-011 2.52291e-027  
     length 5.38183   
     axis 180 30 90   XYZ
    dof rx ry rz
    limits (-90.0 60.0)
           (-90.0 90.0)
           (-90.0 90.0)
  end
  begin
     id 26 
     name rradius
     direction -1 -4.4896e-011 1.5797e-027   
     length 3.16988   
     axis 180 30 90   XYZ
    dof rx
    limits (-10.0 170.0)
  end
  begin
     id 27 
     name rwrist
     direction -1 -4.48947e-011 2.56952e-028   
     length 1.58494   
     axis -5.12785e-016 -90 -90   XYZ
    dof ry
    limits (-180.0 0.0)
  end
  begin
     id 28
     name rhand
     direction -1 -4.49098e-011 5.13905e-028   
     length 0.637679   
     axis -3.27915e-016 -90 -90   XYZ
    dof rx rz
    limits (-90.0 90.0)
           (-45.0 45.0)
  end
  begin
     id 29
     name rfingers
     direction -1 -4.49026e-011 1.02781e-027   
     length 0.514113   
     axis -6.5583e-016 -90 -90   XYZ
    dof rx
    limits (0.0 90.0)
  end
  begin
     id 30
     name rthumb
     direction -0.707107 -6.3491e-011 0.707107   
     length 0.738167   
     axis -90 -45 -2.85299e-015   XYZ
    dof rx rz
    limits (-45.0 45.0)
           (-45.0 45.0)
  end
:hierarchy
  begin
    root lhipjoint rhipjoint lowerback
    lhipjoint lfemur
    lfemur ltibia
    ltibia lfoot
    lfoot ltoes
    rhipjoint rfemur
    rfemur rtibia
    rtibia rfoot
    rfoot rtoes
    lowerback upperback
    upperback thorax
    thorax lowerneck lclavicle rclavicle
    lowerneck upperneck
    upperneck head
    lclavicle lhumerus
    lhumerus lradius
    lradius lwrist
    lwrist lhand lthumb
    lhand lfingers
    rclavicle rhumerus
    rhumerus rradius
    rradius rwrist
    rwrist rhand rthumb
    rhand rfingers
  end

#!OML:ASF H:\Swim\Project 1\Capture day 1\Session 1\swimmer.ASF
:FULLY-SPECIFIED
:DEGREES
151
root 2.66896 17.3291 -43.9938 5.01972 3.07452 12.3496
lowerback -1.39834 -1.45484 -9.80156
upperback 2.95426 -1.44449 -4.73786
thorax 4.00649 -0.929883 0.471308
lowerneck -19.7793 -3.93061 -8.36192
upperneck 34.5952 -6.23617 9.09952
head 16.3018 -2.43508 4.2248
rclavicle -4.96962e-016 1.39149e-014
rhumerus -11.3358 -9.21032 -9.72311
rradius 47.3226
rwrist -175.483
rhand -31.869 -16.2372
rfingers 7.12502
rthumb -5.12222 -46.1553
lclavicle -4.96962e-016 1.39149e-014
lhumerus -15.4333 -2.94919 11.0799
lradius 39.5981
lwrist -12.8105
lhand -16.08 -7.93431
lfingers 7.12502
lthumb 10.123 21.8022
rfemur -14.2925 7.26472 5.66374
rtibia 38.9683
rfoot -25.917 -18.5894
rtoes -16.8279
lfemur -5.99544 -15.1371 -28.9668
ltibia 21.0843
lfoot -7.43819 21.9303
ltoes -32.3577
152
root 2.64505 17.3259 -43.9875 5.04217 3.13102 12.3128
lowerback -1.28001 -1.47719 -9.73437
upperback 2.98857 -1.48986 -4.73579
thorax 3.97662 -0.950251 0.436863
lowerneck -19.7677 -3.90923 -8.35409
upperneck 34.4509 -6.19662 9.10409
head 16.2206 -2.41637 4.22524
rclavicle 8.79622e-015 -4.45278e-014
rhumerus -11.312 -9.08491 -9.90905
rradius 47.5459
rwrist -175.498
rhand -31.8772 -16.2813
rfingers 7.12502
rthumb -5.13016 -46.1992
lclavicle 8.79622e-015 -4.45278e-014
lhumerus -15.5073 -2.97855 11.1931
lradius 39.6964
lwrist -12.8867
lhand -16.0494 -8.06354
lfingers 7.12502
lthumb 10.1525 21.6715
rfemur -14.3229 6.89255 5.76611
rtibia 39.0137
rfoot -25.4697 -18.781
rtoes -18.2518
lfemur -6.21304 -14.3314 -28.7476
ltibia 21.367
lfoot -7.57517 21.0234
ltoes -32.5074
153
root 2.62055 17.3228 -43.9815 5.06966 3.20132 12.2729
lowerback -1.15238 -1.50187 -9.66154
upperback 3.0185 -1.54002 -4.73422
thorax 3.93688 -0.972395 0.399128
lowerneck -19.7583 -3.88562 -8.34701
upperneck 34.2968 -6.15359 9.1117
head 16.1352 -2.39577 4.22737
rclavicle 2.54941e-014 2.78299e-015
rhumerus -11.2861 -8.95559 -10.1022
rradius 47.7658
rwrist -175.521
rhand -31.8835 -16.3278
rfingers 7.12502
rthumb -5.13626 -46.2456
lclavicle 2.54941e-014 2.78299e-015
lhumerus -15.5791 -3.01936 11.3081
lradius 39.8128
lwrist -12.9557
lhand -16.0028 -8.10122
lfingers 7.12502
lthumb 10.1974 21.6316
rfemur -14.3442 6.59489 5.88482
rtibia 39.0532
rfoot -25.1531 -18.9284
rtoes -19.3075
lfemur -6.48754 -13.5002 -28.5213
ltibia 21.7425
lfoot -7.72618 20.0842
ltoes -32.6582
154
root 2.59573 17.3202 -43.9757 5.10302 3.28967 12.2306
lowerback -1.0252 -1.5291 -9.58227
upperback 3.04911 -1.59339 -4.73324
thorax 3.89799 -0.995982 0.357194
lowerneck -19.7509 -3.8633 -8.33893
upperneck 34.1301 -6.11218 9.12067
head 16.0447 -2.37537 4.22892
rclavicle 2.4699e-014 -2.90226e-014
rhumerus -11.265 -8.81582 -10.2955
rradius 47.9891
rwrist -175.557
rhand -31.8877 -16.3794
rfingers 7.12502
rthumb -5.14032 -46.297
lclavicle 2.4699e-014 -2.90226e-014
lhumerus -15.6384 -3.0665 11.4242
lradius 39.9357
lwrist -13.0279
lhand -15.9628 -8.1991
lfingers 7.12502
lthumb 10.236 21.5318
rfemur -14.3561 6.3173 6.01287
rtibia 39.0812
rfoot -24.9111 -19.0465
rtoes -20.161
lfemur -6.82818 -12.652 -28.2907
ltibia 22.2266
lfoot -7.89164 19.1193
ltoes -32.8031
155
root 2.57083 17.318 -43.9701 5.14464 3.3892 12.1812
lowerback -0.886892 -1.55856 -9.49412
upperback 3.06555 -1.65278 -4.72825
thorax 3.83791 -1.02137 0.315277
lowerneck -19.7211 -3.83328 -8.32727
upperneck 33.9536 -6.05929 9.12416
head 15.9426 -2.35091 4.22911
rclavicle -3.57812e-014 -2.0276e-014
rhumerus -11.261 -8.58067 -10.4716
rradius 48.2538
rwrist -175.651
rhand -31.8778 -16.3852
rfingers 7.12502
rthumb -5.13077 -46.3031
lclavicle -3.57812e-014 -2.0276e-014
lhumerus -15.7027 -3.1514 11.5469
lradius 40.0818
lwrist -13.0791
lhand -15.8997 -8.20637
lfingers 7.12502
lthumb 10.2969 21.5216
rfemur -14.3666 6.01235 6.14712
rtibia 39.0919
rfoot -24.6281 -19.1918
rtoes -21.1073
lfemur -7.24527 -11.8035 -28.0547
ltibia 22.8359
lfoot -8.06122 18.1554
ltoes -32.9461
156
root 2.54607 17.3163 -43.9649 5.19235 3.50423 12.1211
lowerback -0.728436 -1.5918 -9.39159
upperback 3.0647 -1.72188 -4.71688
thorax 3.74832 -1.04999 0.273107
lowerneck -19.6715 -3.79785 -8.32164
upperneck 33.7728 -5.99699 9.12725
head 15.8333 -2.32379 4.23181
rclavicle 1.19271e-015 4.77083e-015
rhumerus -11.2611 -8.27527 -10.638
rradius 48.5455
rwrist -175.768
rhand -31.8639 -16.3826
rfingers 7.12502
rthumb -5.11729 -46.3008
lclavicle 1.19271e-015 4.77083e-015
lhumerus -15.7783 -3.28599 11.677
lradius 40.2545
lwrist -13.0944
lhand -15.8153 -8.15137
lfingers 7.12502
lthumb 10.3783 21.5725
rfemur -14.363 5.78707 6.30401
rtibia 39.0801
rfoot -24.415 -19.3749
rtoes -21.8684
lfemur -7.74267 -10.9861 -27.8146
ltibia 23.5798
lfoot -8.22491 17.2285
ltoes -33.0636
157
root 2.52159 17.3154 -43.9599 5.24416 3.64083 12.0465
lowerback -0.57126 -1.62454 -9.27079
upperback 3.06766 -1.79001 -4.6992
thorax 3.66269 -1.07802 0.227678
lowerneck -19.6292 -3.77043 -8.32147
upperneck 33.5837 -5.94541 9.13523
head 15.7243 -2.30091 4.23515
rclavicle -1.67973e-014 -5.20816e-014
rhumerus -11.2692 -7.98455 -10.7978
rradius 48.842
rwrist -175.857
rhand -31.8571 -16.3927
rfingers 7.12502
rthumb -5.11073 -46.3111
lclavicle -1.67973e-014 -5.20816e-014
lhumerus -15.8318 -3.43183 11.8225
lradius 40.4446
lwrist -13.0911
lhand -15.7114 -8.07344
lfingers 7.12502
lthumb 10.4785 21.6454
rfemur -14.337 5.66379 6.49073
rtibia 39.041
rfoot -24.2965 -19.5868
rtoes -22.3761
lfemur -8.32155 -10.2011 -27.5675
ltibia 24.4664
lfoot -8.3791 16.3359
ltoes -33.1849
158
root 2.49744 17.3155 -43.9548 5.2981 3.79559 11.9568
lowerback -0.433369 -1.65324 -9.13881
upperback 3.08677 -1.84874 -4.67217
thorax 3.60403 -1.10252 0.185321
lowerneck -19.5896 -3.75407 -8.32554
upperneck 33.3736 -5.90906 9.14882
head 15.609 -2.28395 4.23769
rclavicle -7.40473e-015 1.59028e-015
rhumerus -11.271 -7.80154 -10.9686
rradius 49.1133
rwrist -175.85
rhand -31.8692 -16.4345
rfingers 7.12502
rthumb -5.12247 -46.3526
lclavicle -7.40473e-015 1.59028e-015
lhumerus -15.8503 -3.56338 11.9909
lradius 40.646
lwrist -13.0848
lhand -15.5973 -7.9768
lfingers 7.12502
lthumb 10.5887 21.7365
rfemur -14.2866 5.60715 6.70313
rtibia 38.9707
rfoot -24.3343 -19.7196
rtoes -22.4288
lfemur -8.98399 -9.47116 -27.3159
ltibia 25.498
lfoot -8.50486 15.5055
ltoes -33.3019
159
root 2.47369 17.3165 -43.9497 5.35161 3.97383 11.8497
lowerback -0.295591 -1.67901 -8.98659
upperback 3.11665 -1.90276 -4.63887
thorax 3.55558 -1.12481 0.138414
lowerneck -19.5709 -3.75158 -8.3344
upperneck 33.1601 -5.89231 9.16878
head 15.5008 -2.27442 4.24003
rclavicle 1.54058e-015 -3.97569e-015
rhumerus -11.2724 -7.68901 -11.1476
rradius 49.3618
rwrist -175.78
rhand -31.8908 -16.5176
rfingers 7.12502
rthumb -5.14332 -46.4352
lclavicle 1.54058e-015 -3.97569e-015
lhumerus -15.8347 -3.66265 12.1726
lradius 40.8262
lwrist -13.1526
lhand -15.52 -7.98546
lfingers 7.12502
lthumb 10.6632 21.724
rfemur -14.2115 5.56837 6.93921
rtibia 38.8678
rfoot -24.4456 -19.803
rtoes -22.2458
lfemur -9.72926 -8.81407 -27.0585
ltibia 26.6754
lfoot -8.58109 14.7499
ltoes -33.4284
160
root 2.45029 17.3186 -43.9447 5.40441 4.17611 11.7286
lowerback -0.165929 -1.7026 -8.82136
upperback 3.16314 -1.95131 -4.59893
thorax 3.52833 -1.14514 0.0908042
lowerneck -19.5737 -3.76331 -8.34802
upperneck 32.942 -5.8958 9.19615
head 15.3994 -2.27249 4.24243
rclavicle -6.5102e-015 3.26007e-014
rhumerus -11.2895 -7.59743 -11.3241
rradius 49.6195
rwrist -175.701
rhand -31.9051 -16.5996
rfingers 7.12502
rthumb -5.15708 -46.5169
lclavicle -6.5102e-015 3.26007e-014
lhumerus -15.7846 -3.7256 12.3705
lradius 40.9761
lwrist -13.3261
lhand -15.5199 -8.15073
lfingers 7.12502
lthumb 10.6633 21.5587
rfemur -14.1144 5.50686 7.19162
rtibia 38.7333
rfoot -24.5781 -19.847
rtoes -21.9449
lfemur -10.555 -8.22563 -26.797
ltibia 27.9927
lfoot -8.59246 14.0545
ltoes -33.5717
161
root 2.42724 17.3218 -43.9396 5.45505 4.39705 11.6011
lowerback -0.0178651 -1.72503 -8.64834
upperback 3.20713 -2.00061 -4.55607
thorax 3.48761 -1.16523 0.042762
lowerneck -19.5825 -3.78208 -8.36702
upperneck 32.7341 -5.91026 9.22932
head 15.3068 -2.27502 4.24683
rclavicle -4.27387e-015 3.1408e-014
rhumerus -11.3263 -7.47183 -11.5001
rradius 49.8997
rwrist -175.636
rhand -31.9062 -16.6573
rfingers 7.12502
rthumb -5.15815 -46.5745
lclavicle -4.27387e-015 3.1408e-014
lhumerus -15.7248 -3.79033 12.5771
lradius 41.1084
lwrist -13.5863
lhand -15.6031 -8.42394
lfingers 7.12502
lthumb 10.583 21.2896
rfemur -14.0017 5.37073 7.44455
rtibia 38.5709
rfoot -24.687 -19.8307
rtoes -21.6652
lfemur -11.4547 -7.70555 -26.5399
ltibia 29.4423
lfoot -8.53145 13.415
ltoes -33.7251
